<svg width="16" height="16" viewBox="0 0 16 16" fill="none" xmlns="http://www.w3.org/2000/svg"><g clip-path="url(#clip0_34801_38588)"><path d="M0 11.5H16V13C16 14.6569 14.6569 16 13 16H3C1.34315 16 0 14.6569 0 13V11.5Z" fill="#2A3052"/><path d="M13.3472 11.5H0V3.08739L14.9572 0.726562C15.0674 0.821494 15.1706 0.924297 15.266 1.0341L13.3472 11.5Z" fill="#0364B9"/><path d="M0 3C0 1.34315 1.34315 0 3 0H13C13.7479 0 14.4319 0.273897 14.9572 0.726562L0 3.08739V3Z" fill="#0A559E"/><path d="M13.3472 11.5L15.266 1.0341C15.7232 1.56063 16 2.24788 16 3V11.5H13.3472Z" fill="#0A559E"/><path d="M3.67111 4.842C3.74311 4.974 3.82511 5.138 3.91711 5.334C4.01311 5.526 4.11111 5.736 4.21111 5.964C4.31511 6.188 4.41711 6.418 4.51711 6.654C4.61711 6.89 4.71111 7.112 4.79911 7.32C4.88711 7.112 4.98111 6.89 5.08111 6.654C5.18111 6.418 5.28111 6.188 5.38111 5.964C5.48511 5.736 5.58311 5.526 5.67511 5.334C5.77111 5.138 5.85511 4.974 5.92711 4.842H6.77911C6.81911 5.118 6.85511 5.428 6.88711 5.772C6.92311 6.112 6.95311 6.468 6.97711 6.84C7.00511 7.208 7.02911 7.578 7.04911 7.95C7.07311 8.322 7.09311 8.672 7.10911 9H6.19711C6.18511 8.596 6.16911 8.156 6.14911 7.68C6.12911 7.204 6.09911 6.724 6.05911 6.24C5.98711 6.408 5.90711 6.594 5.81911 6.798C5.73111 7.002 5.64311 7.206 5.55511 7.41C5.47111 7.614 5.38911 7.81 5.30911 7.998C5.22911 8.182 5.16111 8.34 5.10511 8.472H4.45111C4.39511 8.34 4.32711 8.182 4.24711 7.998C4.16711 7.81 4.08311 7.614 3.99511 7.41C3.91111 7.206 3.82511 7.002 3.73711 6.798C3.64911 6.594 3.56911 6.408 3.49711 6.24C3.45711 6.724 3.42711 7.204 3.40711 7.68C3.38711 8.156 3.37111 8.596 3.35911 9H2.44711C2.46311 8.672 2.48111 8.322 2.50111 7.95C2.52511 7.578 2.54911 7.208 2.57311 6.84C2.60111 6.468 2.63111 6.112 2.66311 5.772C2.69911 5.428 2.73711 5.118 2.77711 4.842H3.67111Z" fill="white"/><path d="M10.6773 4.842V5.64H9.42328V9H8.48728V5.64H7.23328V4.842H10.6773Z" fill="white"/><path d="M12.6588 7.776C12.6588 7.66 12.6328 7.558 12.5808 7.47C12.5288 7.378 12.4388 7.302 12.3108 7.242C12.1828 7.182 12.0108 7.136 11.7948 7.104C11.5788 7.072 11.3068 7.056 10.9788 7.056C11.0228 6.684 11.0588 6.306 11.0868 5.922C11.1148 5.538 11.1368 5.178 11.1528 4.842H13.4028V5.592H11.9028C11.8948 5.736 11.8848 5.876 11.8728 6.012C11.8648 6.144 11.8548 6.26 11.8428 6.36C12.4268 6.4 12.8568 6.538 13.1328 6.774C13.4128 7.006 13.5528 7.33 13.5528 7.746C13.5528 7.938 13.5188 8.116 13.4508 8.28C13.3828 8.444 13.2808 8.586 13.1448 8.706C13.0088 8.826 12.8368 8.92 12.6288 8.988C12.4248 9.056 12.1848 9.09 11.9088 9.09C11.8008 9.09 11.6868 9.082 11.5668 9.066C11.4508 9.054 11.3368 9.036 11.2248 9.012C11.1168 8.992 11.0188 8.97 10.9308 8.946C10.8428 8.922 10.7748 8.898 10.7268 8.874L10.8888 8.136C10.9888 8.18 11.1208 8.224 11.2848 8.268C11.4488 8.308 11.6448 8.328 11.8728 8.328C12.1488 8.328 12.3488 8.274 12.4728 8.166C12.5968 8.054 12.6588 7.924 12.6588 7.776Z" fill="white"/><path d="M5.43554 14.4071C5.45754 14.4091 5.48254 14.4111 5.51054 14.4131C5.54054 14.4131 5.57554 14.4131 5.61554 14.4131C5.84954 14.4131 6.02254 14.3541 6.13454 14.2361C6.24854 14.1181 6.30554 13.9551 6.30554 13.7471C6.30554 13.5291 6.25154 13.3641 6.14354 13.2521C6.03554 13.1401 5.86454 13.0841 5.63054 13.0841C5.59854 13.0841 5.56554 13.0851 5.53154 13.0871C5.49754 13.0871 5.46554 13.0891 5.43554 13.0931V14.4071ZM6.78854 13.7471C6.78854 13.9271 6.76054 14.0841 6.70454 14.2181C6.64854 14.3521 6.56854 14.4631 6.46454 14.5511C6.36254 14.6391 6.23754 14.7051 6.08954 14.7491C5.94154 14.7931 5.77554 14.8151 5.59154 14.8151C5.50754 14.8151 5.40954 14.8111 5.29754 14.8031C5.18554 14.7971 5.07554 14.7831 4.96754 14.7611V12.7361C5.07554 12.7161 5.18754 12.7031 5.30354 12.6971C5.42154 12.6891 5.52254 12.6851 5.60654 12.6851C5.78454 12.6851 5.94554 12.7051 6.08954 12.7451C6.23554 12.7851 6.36054 12.8481 6.46454 12.9341C6.56854 13.0201 6.64854 13.1301 6.70454 13.2641C6.76054 13.3981 6.78854 13.5591 6.78854 13.7471Z" fill="white"/><path d="M7.78845 12.6851C8.10045 12.6851 8.33945 12.7411 8.50545 12.8531C8.67145 12.9631 8.75445 13.1351 8.75445 13.3691C8.75445 13.5151 8.72045 13.6341 8.65245 13.7261C8.58645 13.8161 8.49045 13.8871 8.36445 13.9391C8.40645 13.9911 8.45045 14.0511 8.49645 14.1191C8.54245 14.1851 8.58745 14.2551 8.63145 14.3291C8.67745 14.4011 8.72145 14.4771 8.76345 14.5571C8.80545 14.6351 8.84445 14.7121 8.88045 14.7881H8.35545C8.31745 14.7201 8.27845 14.6511 8.23845 14.5811C8.20045 14.5111 8.16045 14.4431 8.11845 14.3771C8.07845 14.3111 8.03845 14.2491 7.99845 14.1911C7.95845 14.1311 7.91845 14.0771 7.87845 14.0291H7.64745V14.7881H7.17945V12.7391C7.28145 12.7191 7.38645 12.7051 7.49445 12.6971C7.60445 12.6891 7.70245 12.6851 7.78845 12.6851ZM7.81545 13.0841C7.78145 13.0841 7.75045 13.0851 7.72245 13.0871C7.69645 13.0891 7.67145 13.0911 7.64745 13.0931V13.6571H7.77945C7.95545 13.6571 8.08145 13.6351 8.15745 13.5911C8.23345 13.5471 8.27145 13.4721 8.27145 13.3661C8.27145 13.2641 8.23245 13.1921 8.15445 13.1501C8.07845 13.1061 7.96545 13.0841 7.81545 13.0841Z" fill="white"/><path d="M9.75448 14.7881C9.67248 14.6141 9.59148 14.4331 9.51148 14.2451C9.43148 14.0571 9.35548 13.8711 9.28348 13.6871C9.21148 13.5031 9.14449 13.3271 9.08249 13.1591C9.02248 12.9911 8.97048 12.8411 8.92649 12.7091H9.44248C9.48248 12.8291 9.52548 12.9591 9.57148 13.0991C9.61948 13.2371 9.66748 13.3751 9.71548 13.5131C9.76548 13.6511 9.81348 13.7831 9.85948 13.9091C9.90549 14.0351 9.94849 14.1441 9.98849 14.2361C10.0265 14.1441 10.0685 14.0351 10.1145 13.9091C10.1625 13.7831 10.2105 13.6511 10.2585 13.5131C10.3085 13.3751 10.3565 13.2371 10.4025 13.0991C10.4505 12.9591 10.4945 12.8291 10.5345 12.7091H11.0325C10.9865 12.8411 10.9335 12.9911 10.8735 13.1591C10.8135 13.3271 10.7475 13.5031 10.6755 13.6871C10.6035 13.8711 10.5275 14.0571 10.4475 14.2451C10.3675 14.4331 10.2865 14.6141 10.2045 14.7881H9.75448Z" fill="white"/></g><defs><clipPath id="clip0_34801_38588"><rect width="16" height="16" fill="white"/></clipPath></defs></svg>