<svg width="16" height="16" viewBox="0 0 16 16" fill="none" xmlns="http://www.w3.org/2000/svg"><g clip-path="url(#clip0_34801_172551)"><path d="M0 11.5H16V13C16 14.6569 14.6569 16 13 16H3C1.34315 16 0 14.6569 0 13V11.5Z" fill="#FF8C00"/><path d="M13.3472 11.5H0V3.08739L14.9572 0.726562C15.0674 0.821494 15.1706 0.924297 15.266 1.0341L13.3472 11.5Z" fill="#0364B9"/><path d="M0 3C0 1.34315 1.34315 0 3 0H13C13.7479 0 14.4319 0.273897 14.9572 0.726562L0 3.08739V3Z" fill="#0A559E"/><path d="M13.3472 11.5L15.266 1.0341C15.7232 1.56063 16 2.24788 16 3V11.5H13.3472Z" fill="#0A559E"/><path d="M3.67306 4.842C3.74506 4.974 3.82706 5.138 3.91906 5.334C4.01506 5.526 4.11306 5.736 4.21306 5.964C4.31706 6.188 4.41906 6.418 4.51906 6.654C4.61906 6.89 4.71306 7.112 4.80106 7.32C4.88906 7.112 4.98306 6.89 5.08306 6.654C5.18306 6.418 5.28306 6.188 5.38306 5.964C5.48706 5.736 5.58506 5.526 5.67706 5.334C5.77306 5.138 5.85706 4.974 5.92906 4.842H6.78106C6.82106 5.118 6.85706 5.428 6.88906 5.772C6.92506 6.112 6.95506 6.468 6.97906 6.84C7.00706 7.208 7.03106 7.578 7.05106 7.95C7.07506 8.322 7.09506 8.672 7.11106 9H6.19906C6.18706 8.596 6.17106 8.156 6.15106 7.68C6.13106 7.204 6.10106 6.724 6.06106 6.24C5.98906 6.408 5.90906 6.594 5.82106 6.798C5.73306 7.002 5.64506 7.206 5.55706 7.41C5.47306 7.614 5.39106 7.81 5.31106 7.998C5.23106 8.182 5.16306 8.34 5.10706 8.472H4.45306C4.39706 8.34 4.32906 8.182 4.24906 7.998C4.16906 7.81 4.08506 7.614 3.99706 7.41C3.91306 7.206 3.82706 7.002 3.73906 6.798C3.65106 6.594 3.57106 6.408 3.49906 6.24C3.45906 6.724 3.42906 7.204 3.40906 7.68C3.38906 8.156 3.37306 8.596 3.36106 9H2.44906C2.46506 8.672 2.48306 8.322 2.50306 7.95C2.52706 7.578 2.55106 7.208 2.57506 6.84C2.60306 6.468 2.63306 6.112 2.66506 5.772C2.70106 5.428 2.73906 5.118 2.77906 4.842H3.67306Z" fill="white"/><path d="M10.6792 4.842V5.64H9.42523V9H8.48923V5.64H7.23523V4.842H10.6792Z" fill="white"/><path d="M12.6608 7.776C12.6608 7.66 12.6348 7.558 12.5828 7.47C12.5308 7.378 12.4408 7.302 12.3128 7.242C12.1848 7.182 12.0128 7.136 11.7968 7.104C11.5808 7.072 11.3088 7.056 10.9808 7.056C11.0248 6.684 11.0608 6.306 11.0888 5.922C11.1168 5.538 11.1388 5.178 11.1548 4.842H13.4048V5.592H11.9048C11.8968 5.736 11.8868 5.876 11.8748 6.012C11.8668 6.144 11.8568 6.26 11.8448 6.36C12.4288 6.4 12.8588 6.538 13.1348 6.774C13.4148 7.006 13.5548 7.33 13.5548 7.746C13.5548 7.938 13.5208 8.116 13.4528 8.28C13.3848 8.444 13.2828 8.586 13.1468 8.706C13.0108 8.826 12.8388 8.92 12.6308 8.988C12.4268 9.056 12.1868 9.09 11.9108 9.09C11.8028 9.09 11.6888 9.082 11.5688 9.066C11.4528 9.054 11.3388 9.036 11.2268 9.012C11.1188 8.992 11.0208 8.97 10.9328 8.946C10.8448 8.922 10.7768 8.898 10.7288 8.874L10.8908 8.136C10.9908 8.18 11.1228 8.224 11.2868 8.268C11.4508 8.308 11.6468 8.328 11.8748 8.328C12.1508 8.328 12.3508 8.274 12.4748 8.166C12.5988 8.054 12.6608 7.924 12.6608 7.776Z" fill="white"/><path d="M5.50703 14.8345C5.16903 14.8345 4.91103 14.7405 4.73303 14.5525C4.55703 14.3645 4.46903 14.0975 4.46903 13.7515C4.46903 13.5795 4.49603 13.4265 4.55003 13.2925C4.60403 13.1565 4.67803 13.0425 4.77203 12.9505C4.86603 12.8565 4.97803 12.7855 5.10803 12.7375C5.23803 12.6895 5.37903 12.6655 5.53103 12.6655C5.61903 12.6655 5.69903 12.6725 5.77103 12.6865C5.84303 12.6985 5.90603 12.7135 5.96003 12.7315C6.01403 12.7475 6.05903 12.7645 6.09503 12.7825C6.13103 12.8005 6.15703 12.8145 6.17303 12.8245L6.03803 13.2025C5.97403 13.1685 5.89903 13.1395 5.81303 13.1155C5.72903 13.0915 5.63303 13.0795 5.52503 13.0795C5.45303 13.0795 5.38203 13.0915 5.31203 13.1155C5.24403 13.1395 5.18303 13.1785 5.12903 13.2325C5.07703 13.2845 5.03503 13.3525 5.00303 13.4365C4.97103 13.5205 4.95503 13.6225 4.95503 13.7425C4.95503 13.8385 4.96503 13.9285 4.98503 14.0125C5.00703 14.0945 5.04103 14.1655 5.08703 14.2255C5.13503 14.2855 5.19703 14.3335 5.27303 14.3695C5.34903 14.4035 5.44103 14.4205 5.54903 14.4205C5.61703 14.4205 5.67803 14.4165 5.73203 14.4085C5.78603 14.4005 5.83403 14.3915 5.87603 14.3815C5.91803 14.3695 5.95503 14.3565 5.98703 14.3425C6.01903 14.3285 6.04803 14.3155 6.07403 14.3035L6.20303 14.6785C6.13703 14.7185 6.04403 14.7545 5.92403 14.7865C5.80403 14.8185 5.66503 14.8345 5.50703 14.8345Z" fill="white"/><path d="M6.50434 14.7925V12.7135H7.89634V13.1065H6.97234V13.5415H7.79434V13.9345H6.97234V14.7925H6.50434Z" fill="white"/><path d="M8.695 14.4115C8.717 14.4135 8.742 14.4155 8.77 14.4175C8.8 14.4175 8.835 14.4175 8.875 14.4175C9.109 14.4175 9.282 14.3585 9.394 14.2405C9.508 14.1225 9.565 13.9595 9.565 13.7515C9.565 13.5335 9.511 13.3685 9.403 13.2565C9.295 13.1445 9.124 13.0885 8.89 13.0885C8.858 13.0885 8.825 13.0895 8.791 13.0915C8.757 13.0915 8.725 13.0935 8.695 13.0975V14.4115ZM10.048 13.7515C10.048 13.9315 10.02 14.0885 9.964 14.2225C9.908 14.3565 9.828 14.4675 9.724 14.5555C9.622 14.6435 9.497 14.7095 9.349 14.7535C9.201 14.7975 9.035 14.8195 8.851 14.8195C8.767 14.8195 8.669 14.8155 8.557 14.8075C8.445 14.8015 8.335 14.7875 8.227 14.7655V12.7405C8.335 12.7205 8.447 12.7075 8.563 12.7015C8.681 12.6935 8.782 12.6895 8.866 12.6895C9.044 12.6895 9.205 12.7095 9.349 12.7495C9.495 12.7895 9.62 12.8525 9.724 12.9385C9.828 13.0245 9.908 13.1345 9.964 13.2685C10.02 13.4025 10.048 13.5635 10.048 13.7515Z" fill="white"/><path d="M10.8619 14.4715C10.9439 14.4715 11.0019 14.4635 11.0359 14.4475C11.0699 14.4315 11.0869 14.4005 11.0869 14.3545C11.0869 14.3185 11.0649 14.2875 11.0209 14.2615C10.9769 14.2335 10.9099 14.2025 10.8199 14.1685C10.7499 14.1425 10.6859 14.1155 10.6279 14.0875C10.5719 14.0595 10.5239 14.0265 10.4839 13.9885C10.4439 13.9485 10.4129 13.9015 10.3909 13.8475C10.3689 13.7935 10.3579 13.7285 10.3579 13.6525C10.3579 13.5045 10.4129 13.3875 10.5229 13.3015C10.6329 13.2155 10.7839 13.1725 10.9759 13.1725C11.0719 13.1725 11.1639 13.1815 11.2519 13.1995C11.3399 13.2155 11.4099 13.2335 11.4619 13.2535L11.3839 13.6015C11.3319 13.5835 11.2749 13.5675 11.2129 13.5535C11.1529 13.5395 11.0849 13.5325 11.0089 13.5325C10.8689 13.5325 10.7989 13.5715 10.7989 13.6495C10.7989 13.6675 10.8019 13.6835 10.8079 13.6975C10.8139 13.7115 10.8259 13.7255 10.8439 13.7395C10.8619 13.7515 10.8859 13.7655 10.9159 13.7815C10.9479 13.7955 10.9879 13.8115 11.0359 13.8295C11.1339 13.8655 11.2149 13.9015 11.2789 13.9375C11.3429 13.9715 11.3929 14.0095 11.4289 14.0515C11.4669 14.0915 11.4929 14.1365 11.5069 14.1865C11.5229 14.2365 11.5309 14.2945 11.5309 14.3605C11.5309 14.5165 11.4719 14.6345 11.3539 14.7145C11.2379 14.7945 11.0729 14.8345 10.8589 14.8345C10.7189 14.8345 10.6019 14.8225 10.5079 14.7985C10.4159 14.7745 10.3519 14.7545 10.3159 14.7385L10.3909 14.3755C10.4669 14.4055 10.5449 14.4295 10.6249 14.4475C10.7049 14.4635 10.7839 14.4715 10.8619 14.4715Z" fill="white"/></g><defs><clipPath id="clip0_34801_172551"><rect width="16" height="16" fill="white"/></clipPath></defs></svg>