<svg width="16" height="16" viewBox="0 0 16 16" fill="none" xmlns="http://www.w3.org/2000/svg"><g clip-path="url(#clip0_34801_161063)"><path d="M0 11.5H16V13C16 14.6569 14.6569 16 13 16H3C1.34315 16 0 14.6569 0 13V11.5Z" fill="#71BD0E"/><path d="M13.3472 11.5H0V3.08739L14.9572 0.726562C15.0674 0.821494 15.1706 0.924297 15.266 1.0341L13.3472 11.5Z" fill="#0364B9"/><path d="M0 3C0 1.34315 1.34315 0 3 0H13C13.7479 0 14.4319 0.273897 14.9572 0.726562L0 3.08739V3Z" fill="#0A559E"/><path d="M13.3472 11.5L15.266 1.0341C15.7232 1.56063 16 2.24788 16 3V11.5H13.3472Z" fill="#0A559E"/><path d="M3.67111 4.842C3.74311 4.974 3.82511 5.138 3.91711 5.334C4.01311 5.526 4.11111 5.736 4.21111 5.964C4.31511 6.188 4.41711 6.418 4.51711 6.654C4.61711 6.89 4.71111 7.112 4.79911 7.32C4.88711 7.112 4.98111 6.89 5.08111 6.654C5.18111 6.418 5.28111 6.188 5.38111 5.964C5.48511 5.736 5.58311 5.526 5.67511 5.334C5.77111 5.138 5.85511 4.974 5.92711 4.842H6.77911C6.81911 5.118 6.85511 5.428 6.88711 5.772C6.92311 6.112 6.95311 6.468 6.97711 6.84C7.00511 7.208 7.02911 7.578 7.04911 7.95C7.07311 8.322 7.09311 8.672 7.10911 9H6.19711C6.18511 8.596 6.16911 8.156 6.14911 7.68C6.12911 7.204 6.09911 6.724 6.05911 6.24C5.98711 6.408 5.90711 6.594 5.81911 6.798C5.73111 7.002 5.64311 7.206 5.55511 7.41C5.47111 7.614 5.38911 7.81 5.30911 7.998C5.22911 8.182 5.16111 8.34 5.10511 8.472H4.45111C4.39511 8.34 4.32711 8.182 4.24711 7.998C4.16711 7.81 4.08311 7.614 3.99511 7.41C3.91111 7.206 3.82511 7.002 3.73711 6.798C3.64911 6.594 3.56911 6.408 3.49711 6.24C3.45711 6.724 3.42711 7.204 3.40711 7.68C3.38711 8.156 3.37111 8.596 3.35911 9H2.44711C2.46311 8.672 2.48111 8.322 2.50111 7.95C2.52511 7.578 2.54911 7.208 2.57311 6.84C2.60111 6.468 2.63111 6.112 2.66311 5.772C2.69911 5.428 2.73711 5.118 2.77711 4.842H3.67111Z" fill="white"/><path d="M10.6773 4.842V5.64H9.42328V9H8.48728V5.64H7.23328V4.842H10.6773Z" fill="white"/><path d="M12.6588 7.776C12.6588 7.66 12.6328 7.558 12.5808 7.47C12.5288 7.378 12.4388 7.302 12.3108 7.242C12.1828 7.182 12.0108 7.136 11.7948 7.104C11.5788 7.072 11.3068 7.056 10.9788 7.056C11.0228 6.684 11.0588 6.306 11.0868 5.922C11.1148 5.538 11.1368 5.178 11.1528 4.842H13.4028V5.592H11.9028C11.8948 5.736 11.8848 5.876 11.8728 6.012C11.8648 6.144 11.8548 6.26 11.8428 6.36C12.4268 6.4 12.8568 6.538 13.1328 6.774C13.4128 7.006 13.5528 7.33 13.5528 7.746C13.5528 7.938 13.5188 8.116 13.4508 8.28C13.3828 8.444 13.2808 8.586 13.1448 8.706C13.0088 8.826 12.8368 8.92 12.6288 8.988C12.4248 9.056 12.1848 9.09 11.9088 9.09C11.8008 9.09 11.6868 9.082 11.5668 9.066C11.4508 9.054 11.3368 9.036 11.2248 9.012C11.1168 8.992 11.0188 8.97 10.9308 8.946C10.8428 8.922 10.7748 8.898 10.7268 8.874L10.8888 8.136C10.9888 8.18 11.1208 8.224 11.2848 8.268C11.4488 8.308 11.6448 8.328 11.8728 8.328C12.1488 8.328 12.3488 8.274 12.4728 8.166C12.5968 8.054 12.6588 7.924 12.6588 7.776Z" fill="white"/><path d="M5.77009 14.7896V12.7106H7.16209V13.1035H6.23809V13.5386H7.06009V13.9316H6.23809V14.7896H5.77009Z" fill="white"/><path d="M7.49275 12.7106H7.96075V14.7896H7.49275V12.7106Z" fill="white"/><path d="M9.83697 14.7896C9.70297 14.5516 9.55797 14.3166 9.40197 14.0846C9.24597 13.8526 9.07997 13.6336 8.90397 13.4276V14.7896H8.44197V12.7106H8.82297C8.88897 12.7766 8.96197 12.8576 9.04197 12.9536C9.12197 13.0496 9.20297 13.1526 9.28497 13.2626C9.36897 13.3706 9.45197 13.4836 9.53397 13.6016C9.61597 13.7176 9.69296 13.8296 9.76497 13.9376V12.7106H10.23V14.7896H9.83697Z" fill="white"/></g><defs><clipPath id="clip0_34801_161063"><rect width="16" height="16" fill="white"/></clipPath></defs></svg>